<svg xmlns="http://www.w3.org/2000/svg" xmlns:xlink="http://www.w3.org/1999/xlink" width="2000" zoomAndPan="magnify" viewBox="0 0 1500 1499.999933" height="2000" preserveAspectRatio="xMidYMid meet" version="1.0"><defs><g/><clipPath id="2a2d3349aa"><path d="M 0.359375 646 L 994.441406 646 L 994.441406 715 L 0.359375 715 Z M 0.359375 646 " clip-rule="nonzero"/></clipPath><clipPath id="68d9f6b044"><rect x="0" width="995" y="0" height="69"/></clipPath><clipPath id="e1ccd3d857"><path d="M 164 0.0390625 L 446 0.0390625 L 446 488 L 164 488 Z M 164 0.0390625 " clip-rule="nonzero"/></clipPath><clipPath id="23392e74e2"><rect x="0" width="282" y="0" height="488"/></clipPath><clipPath id="0ed8008e0d"><rect x="0" width="417" y="0" height="489"/></clipPath><clipPath id="93f929f864"><path d="M 259 243 L 456 243 L 456 506 L 259 506 Z M 259 243 " clip-rule="nonzero"/></clipPath><clipPath id="3eb51da460"><path d="M 395.453125 243.160156 L 455.832031 279.597656 L 319.390625 505.675781 L 259.011719 469.238281 Z M 395.453125 243.160156 " clip-rule="nonzero"/></clipPath><clipPath id="6ade4059e1"><path d="M 0 0.160156 L 196.878906 0.160156 L 196.878906 262.71875 L 0 262.71875 Z M 0 0.160156 " clip-rule="nonzero"/></clipPath><clipPath id="6eef920f2f"><path d="M 136.453125 0.160156 L 196.832031 36.597656 L 60.390625 262.675781 L 0.0117188 226.238281 Z M 136.453125 0.160156 " clip-rule="nonzero"/></clipPath><clipPath id="1db97dc709"><rect x="0" width="197" y="0" height="263"/></clipPath><clipPath id="93ab59a65c"><path d="M 265 280 L 399 280 L 399 414 L 265 414 Z M 265 280 " clip-rule="nonzero"/></clipPath><clipPath id="4ec07fbbc5"><path d="M 315.898438 280.226562 L 398.167969 329.878906 L 347.582031 413.703125 L 265.308594 364.050781 Z M 315.898438 280.226562 " clip-rule="nonzero"/></clipPath><clipPath id="6c94d58a16"><path d="M 0.078125 0.121094 L 133.28125 0.121094 L 133.28125 133.800781 L 0.078125 133.800781 Z M 0.078125 0.121094 " clip-rule="nonzero"/></clipPath><clipPath id="318023df55"><path d="M 50.898438 0.226562 L 133.167969 49.878906 L 82.582031 133.703125 L 0.308594 84.050781 Z M 50.898438 0.226562 " clip-rule="nonzero"/></clipPath><clipPath id="a439842e4c"><rect x="0" width="134" y="0" height="134"/></clipPath><clipPath id="23ff595740"><path d="M 361 288 L 489 288 L 489 413 L 361 413 Z M 361 288 " clip-rule="nonzero"/></clipPath><clipPath id="e1dfcba25a"><path d="M 406.726562 288.109375 L 489 337.761719 L 443.808594 412.640625 L 361.539062 362.988281 Z M 406.726562 288.109375 " clip-rule="nonzero"/></clipPath><clipPath id="3b74201aa4"><path d="M 0.320312 0.0390625 L 128 0.0390625 L 128 124.839844 L 0.320312 124.839844 Z M 0.320312 0.0390625 " clip-rule="nonzero"/></clipPath><clipPath id="3abb3d7271"><path d="M 45.726562 0.109375 L 128 49.761719 L 82.808594 124.640625 L 0.539062 74.988281 Z M 45.726562 0.109375 " clip-rule="nonzero"/></clipPath><clipPath id="288fbc1689"><rect x="0" width="128" y="0" height="125"/></clipPath><clipPath id="ceff93abcc"><rect x="0" width="995" y="0" height="715"/></clipPath></defs><rect x="-150" width="1800" fill="#ffffff" y="-149.999993" height="1799.99992" fill-opacity="1"/><rect x="-150" width="1800" fill="#2d2d2d" y="-149.999993" height="1799.99992" fill-opacity="1"/><g transform="matrix(1, 0, 0, 1, 261, 323)"><g clip-path="url(#ceff93abcc)"><g clip-path="url(#2a2d3349aa)"><g transform="matrix(1, 0, 0, 1, 0, 646)"><g clip-path="url(#68d9f6b044)"><g fill="#ffffff" fill-opacity="1"><g transform="translate(1.0753, 53.934911)"><g><path d="M 23.515625 0.34375 C 19.609375 0.34375 16.085938 -0.519531 12.953125 -2.25 C 9.828125 -3.976562 7.375 -6.367188 5.59375 -9.421875 C 3.8125 -12.472656 2.921875 -15.894531 2.921875 -19.6875 C 2.921875 -23.476562 3.8125 -26.898438 5.59375 -29.953125 C 7.375 -33.003906 9.835938 -35.394531 12.984375 -37.125 C 16.140625 -38.851562 19.664062 -39.71875 23.5625 -39.71875 C 26.488281 -39.71875 29.1875 -39.226562 31.65625 -38.25 C 34.132812 -37.269531 36.238281 -35.84375 37.96875 -33.96875 L 35.328125 -31.328125 C 32.253906 -34.441406 28.375 -36 23.6875 -36 C 20.570312 -36 17.738281 -35.285156 15.1875 -33.859375 C 12.632812 -32.429688 10.632812 -30.476562 9.1875 -28 C 7.75 -25.53125 7.03125 -22.757812 7.03125 -19.6875 C 7.03125 -16.613281 7.75 -13.835938 9.1875 -11.359375 C 10.632812 -8.890625 12.632812 -6.941406 15.1875 -5.515625 C 17.738281 -4.085938 20.570312 -3.375 23.6875 -3.375 C 28.40625 -3.375 32.285156 -4.945312 35.328125 -8.09375 L 37.96875 -5.453125 C 36.238281 -3.578125 34.128906 -2.140625 31.640625 -1.140625 C 29.148438 -0.148438 26.441406 0.34375 23.515625 0.34375 Z M 23.515625 0.34375 "/></g></g></g><g fill="#ffffff" fill-opacity="1"><g transform="translate(58.394158, 53.934911)"><g><path d="M 6.40625 -39.375 L 10.578125 -39.375 L 10.578125 -3.59375 L 32.625 -3.59375 L 32.625 0 L 6.40625 0 Z M 6.40625 -39.375 "/></g></g></g><g fill="#ffffff" fill-opacity="1"><g transform="translate(108.400529, 53.934911)"><g><path d="M 31.109375 -10.515625 L 9.171875 -10.515625 L 4.4375 0 L 0.109375 0 L 18.109375 -39.375 L 22.21875 -39.375 L 40.21875 0 L 35.828125 0 Z M 29.59375 -13.890625 L 20.140625 -35.046875 L 10.6875 -13.890625 Z M 29.59375 -13.890625 "/></g></g></g><g fill="#ffffff" fill-opacity="1"><g transform="translate(165.606893, 53.934911)"><g><path d="M 34.25 -3.59375 L 34.25 0 L 6.40625 0 L 6.40625 -39.375 L 33.40625 -39.375 L 33.40625 -35.78125 L 10.578125 -35.78125 L 10.578125 -21.765625 L 30.9375 -21.765625 L 30.9375 -18.21875 L 10.578125 -18.21875 L 10.578125 -3.59375 Z M 34.25 -3.59375 "/></g></g></g><g fill="#ffffff" fill-opacity="1"><g transform="translate(220.113266, 53.934911)"><g><path d="M 17.265625 0.34375 C 14.335938 0.34375 11.535156 -0.125 8.859375 -1.0625 C 6.179688 -2 4.109375 -3.238281 2.640625 -4.78125 L 4.28125 -7.984375 C 5.695312 -6.554688 7.585938 -5.398438 9.953125 -4.515625 C 12.316406 -3.640625 14.753906 -3.203125 17.265625 -3.203125 C 20.796875 -3.203125 23.441406 -3.847656 25.203125 -5.140625 C 26.960938 -6.441406 27.84375 -8.125 27.84375 -10.1875 C 27.84375 -11.757812 27.363281 -13.015625 26.40625 -13.953125 C 25.445312 -14.890625 24.273438 -15.609375 22.890625 -16.109375 C 21.503906 -16.617188 19.570312 -17.175781 17.09375 -17.78125 C 14.132812 -18.53125 11.773438 -19.25 10.015625 -19.9375 C 8.253906 -20.632812 6.742188 -21.691406 5.484375 -23.109375 C 4.222656 -24.535156 3.59375 -26.46875 3.59375 -28.90625 C 3.59375 -30.894531 4.117188 -32.703125 5.171875 -34.328125 C 6.222656 -35.960938 7.835938 -37.269531 10.015625 -38.25 C 12.191406 -39.226562 14.890625 -39.71875 18.109375 -39.71875 C 20.359375 -39.71875 22.5625 -39.40625 24.71875 -38.78125 C 26.875 -38.164062 28.738281 -37.3125 30.3125 -36.21875 L 28.90625 -32.90625 C 27.257812 -33.988281 25.5 -34.800781 23.625 -35.34375 C 21.75 -35.894531 19.910156 -36.171875 18.109375 -36.171875 C 14.660156 -36.171875 12.0625 -35.503906 10.3125 -34.171875 C 8.570312 -32.835938 7.703125 -31.125 7.703125 -29.03125 C 7.703125 -27.445312 8.179688 -26.175781 9.140625 -25.21875 C 10.097656 -24.269531 11.296875 -23.539062 12.734375 -23.03125 C 14.179688 -22.53125 16.125 -21.976562 18.5625 -21.375 C 21.445312 -20.664062 23.78125 -19.960938 25.5625 -19.265625 C 27.34375 -18.566406 28.851562 -17.515625 30.09375 -16.109375 C 31.332031 -14.703125 31.953125 -12.800781 31.953125 -10.40625 C 31.953125 -8.414062 31.414062 -6.601562 30.34375 -4.96875 C 29.28125 -3.34375 27.640625 -2.050781 25.421875 -1.09375 C 23.210938 -0.132812 20.492188 0.34375 17.265625 0.34375 Z M 17.265625 0.34375 "/></g></g></g><g fill="#ffffff" fill-opacity="1"><g transform="translate(271.582135, 53.934911)"><g/></g></g><g fill="#ffffff" fill-opacity="1"><g transform="translate(303.194776, 53.934911)"><g><path d="M 21.15625 -39.375 C 26.175781 -39.375 30.109375 -38.171875 32.953125 -35.765625 C 35.804688 -33.367188 37.234375 -30.070312 37.234375 -25.875 C 37.234375 -21.675781 35.804688 -18.382812 32.953125 -16 C 30.109375 -13.625 26.175781 -12.4375 21.15625 -12.4375 L 10.578125 -12.4375 L 10.578125 0 L 6.40625 0 L 6.40625 -39.375 Z M 21.03125 -16.09375 C 24.9375 -16.09375 27.921875 -16.941406 29.984375 -18.640625 C 32.046875 -20.347656 33.078125 -22.757812 33.078125 -25.875 C 33.078125 -29.0625 32.046875 -31.507812 29.984375 -33.21875 C 27.921875 -34.925781 24.9375 -35.78125 21.03125 -35.78125 L 10.578125 -35.78125 L 10.578125 -16.09375 Z M 21.03125 -16.09375 "/></g></g></g><g fill="#ffffff" fill-opacity="1"><g transform="translate(360.457402, 53.934911)"><g><path d="M 39.3125 -39.375 L 39.3125 0 L 35.21875 0 L 35.21875 -18.171875 L 10.578125 -18.171875 L 10.578125 0 L 6.40625 0 L 6.40625 -39.375 L 10.578125 -39.375 L 10.578125 -21.828125 L 35.21875 -21.828125 L 35.21875 -39.375 Z M 39.3125 -39.375 "/></g></g></g><g fill="#ffffff" fill-opacity="1"><g transform="translate(423.063731, 53.934911)"><g><path d="M 6.40625 -39.375 L 10.578125 -39.375 L 10.578125 0 L 6.40625 0 Z M 6.40625 -39.375 "/></g></g></g><g fill="#ffffff" fill-opacity="1"><g transform="translate(456.926395, 53.934911)"><g><path d="M 6.40625 -39.375 L 10.578125 -39.375 L 10.578125 -3.59375 L 32.625 -3.59375 L 32.625 0 L 6.40625 0 Z M 6.40625 -39.375 "/></g></g></g><g fill="#ffffff" fill-opacity="1"><g transform="translate(506.932723, 53.934911)"><g><path d="M 6.40625 -39.375 L 10.578125 -39.375 L 10.578125 0 L 6.40625 0 Z M 6.40625 -39.375 "/></g></g></g><g fill="#ffffff" fill-opacity="1"><g transform="translate(540.795387, 53.934911)"><g><path d="M 21.15625 -39.375 C 26.175781 -39.375 30.109375 -38.171875 32.953125 -35.765625 C 35.804688 -33.367188 37.234375 -30.070312 37.234375 -25.875 C 37.234375 -21.675781 35.804688 -18.382812 32.953125 -16 C 30.109375 -13.625 26.175781 -12.4375 21.15625 -12.4375 L 10.578125 -12.4375 L 10.578125 0 L 6.40625 0 L 6.40625 -39.375 Z M 21.03125 -16.09375 C 24.9375 -16.09375 27.921875 -16.941406 29.984375 -18.640625 C 32.046875 -20.347656 33.078125 -22.757812 33.078125 -25.875 C 33.078125 -29.0625 32.046875 -31.507812 29.984375 -33.21875 C 27.921875 -34.925781 24.9375 -35.78125 21.03125 -35.78125 L 10.578125 -35.78125 L 10.578125 -16.09375 Z M 21.03125 -16.09375 "/></g></g></g><g fill="#ffffff" fill-opacity="1"><g transform="translate(598.058012, 53.934911)"><g/></g></g><g fill="#ffffff" fill-opacity="1"><g transform="translate(629.670654, 53.934911)"><g><path d="M 17.265625 0.34375 C 14.335938 0.34375 11.535156 -0.125 8.859375 -1.0625 C 6.179688 -2 4.109375 -3.238281 2.640625 -4.78125 L 4.28125 -7.984375 C 5.695312 -6.554688 7.585938 -5.398438 9.953125 -4.515625 C 12.316406 -3.640625 14.753906 -3.203125 17.265625 -3.203125 C 20.796875 -3.203125 23.441406 -3.847656 25.203125 -5.140625 C 26.960938 -6.441406 27.84375 -8.125 27.84375 -10.1875 C 27.84375 -11.757812 27.363281 -13.015625 26.40625 -13.953125 C 25.445312 -14.890625 24.273438 -15.609375 22.890625 -16.109375 C 21.503906 -16.617188 19.570312 -17.175781 17.09375 -17.78125 C 14.132812 -18.53125 11.773438 -19.25 10.015625 -19.9375 C 8.253906 -20.632812 6.742188 -21.691406 5.484375 -23.109375 C 4.222656 -24.535156 3.59375 -26.46875 3.59375 -28.90625 C 3.59375 -30.894531 4.117188 -32.703125 5.171875 -34.328125 C 6.222656 -35.960938 7.835938 -37.269531 10.015625 -38.25 C 12.191406 -39.226562 14.890625 -39.71875 18.109375 -39.71875 C 20.359375 -39.71875 22.5625 -39.40625 24.71875 -38.78125 C 26.875 -38.164062 28.738281 -37.3125 30.3125 -36.21875 L 28.90625 -32.90625 C 27.257812 -33.988281 25.5 -34.800781 23.625 -35.34375 C 21.75 -35.894531 19.910156 -36.171875 18.109375 -36.171875 C 14.660156 -36.171875 12.0625 -35.503906 10.3125 -34.171875 C 8.570312 -32.835938 7.703125 -31.125 7.703125 -29.03125 C 7.703125 -27.445312 8.179688 -26.175781 9.140625 -25.21875 C 10.097656 -24.269531 11.296875 -23.539062 12.734375 -23.03125 C 14.179688 -22.53125 16.125 -21.976562 18.5625 -21.375 C 21.445312 -20.664062 23.78125 -19.960938 25.5625 -19.265625 C 27.34375 -18.566406 28.851562 -17.515625 30.09375 -16.109375 C 31.332031 -14.703125 31.953125 -12.800781 31.953125 -10.40625 C 31.953125 -8.414062 31.414062 -6.601562 30.34375 -4.96875 C 29.28125 -3.34375 27.640625 -2.050781 25.421875 -1.09375 C 23.210938 -0.132812 20.492188 0.34375 17.265625 0.34375 Z M 17.265625 0.34375 "/></g></g></g><g fill="#ffffff" fill-opacity="1"><g transform="translate(681.139479, 53.934911)"><g><path d="M 14.0625 -35.78125 L 0.21875 -35.78125 L 0.21875 -39.375 L 32.0625 -39.375 L 32.0625 -35.78125 L 18.21875 -35.78125 L 18.21875 0 L 14.0625 0 Z M 14.0625 -35.78125 "/></g></g></g><g fill="#ffffff" fill-opacity="1"><g transform="translate(730.302149, 53.934911)"><g><path d="M 31.109375 -10.515625 L 9.171875 -10.515625 L 4.4375 0 L 0.109375 0 L 18.109375 -39.375 L 22.21875 -39.375 L 40.21875 0 L 35.828125 0 Z M 29.59375 -13.890625 L 20.140625 -35.046875 L 10.6875 -13.890625 Z M 29.59375 -13.890625 "/></g></g></g><g fill="#ffffff" fill-opacity="1"><g transform="translate(787.508527, 53.934911)"><g><path d="M 6.40625 -39.375 L 10.578125 -39.375 L 10.578125 0 L 6.40625 0 Z M 6.40625 -39.375 "/></g></g></g><g fill="#ffffff" fill-opacity="1"><g transform="translate(821.371134, 53.934911)"><g><path d="M 34.140625 -19.6875 L 38.140625 -19.6875 L 38.140625 -4.671875 C 36.296875 -3.054688 34.117188 -1.816406 31.609375 -0.953125 C 29.097656 -0.0859375 26.457031 0.34375 23.6875 0.34375 C 19.75 0.34375 16.203125 -0.519531 13.046875 -2.25 C 9.898438 -3.976562 7.425781 -6.367188 5.625 -9.421875 C 3.820312 -12.472656 2.921875 -15.894531 2.921875 -19.6875 C 2.921875 -23.476562 3.820312 -26.898438 5.625 -29.953125 C 7.425781 -33.003906 9.898438 -35.394531 13.046875 -37.125 C 16.203125 -38.851562 19.765625 -39.71875 23.734375 -39.71875 C 26.734375 -39.71875 29.488281 -39.238281 32 -38.28125 C 34.519531 -37.320312 36.640625 -35.90625 38.359375 -34.03125 L 35.78125 -31.390625 C 32.664062 -34.460938 28.707031 -36 23.90625 -36 C 20.71875 -36 17.835938 -35.296875 15.265625 -33.890625 C 12.703125 -32.484375 10.6875 -30.53125 9.21875 -28.03125 C 7.757812 -25.539062 7.03125 -22.757812 7.03125 -19.6875 C 7.03125 -16.613281 7.757812 -13.835938 9.21875 -11.359375 C 10.6875 -8.890625 12.691406 -6.941406 15.234375 -5.515625 C 17.785156 -4.085938 20.65625 -3.375 23.84375 -3.375 C 27.894531 -3.375 31.328125 -4.382812 34.140625 -6.40625 Z M 34.140625 -19.6875 "/></g></g></g><g fill="#ffffff" fill-opacity="1"><g transform="translate(881.727498, 53.934911)"><g><path d="M 34.25 -3.59375 L 34.25 0 L 6.40625 0 L 6.40625 -39.375 L 33.40625 -39.375 L 33.40625 -35.78125 L 10.578125 -35.78125 L 10.578125 -21.765625 L 30.9375 -21.765625 L 30.9375 -18.21875 L 10.578125 -18.21875 L 10.578125 -3.59375 Z M 34.25 -3.59375 "/></g></g></g><g fill="#ffffff" fill-opacity="1"><g transform="translate(936.233872, 53.934911)"><g><path d="M 33.296875 0 L 24.296875 -12.65625 C 23.285156 -12.539062 22.238281 -12.484375 21.15625 -12.484375 L 10.578125 -12.484375 L 10.578125 0 L 6.40625 0 L 6.40625 -39.375 L 21.15625 -39.375 C 26.175781 -39.375 30.109375 -38.171875 32.953125 -35.765625 C 35.804688 -33.367188 37.234375 -30.070312 37.234375 -25.875 C 37.234375 -22.800781 36.453125 -20.203125 34.890625 -18.078125 C 33.335938 -15.960938 31.117188 -14.4375 28.234375 -13.5 L 37.859375 0 Z M 21.03125 -16.03125 C 24.9375 -16.03125 27.921875 -16.890625 29.984375 -18.609375 C 32.046875 -20.335938 33.078125 -22.757812 33.078125 -25.875 C 33.078125 -29.0625 32.046875 -31.507812 29.984375 -33.21875 C 27.921875 -34.925781 24.9375 -35.78125 21.03125 -35.78125 L 10.578125 -35.78125 L 10.578125 -16.03125 Z M 21.03125 -16.03125 "/></g></g></g></g></g></g><g clip-path="url(#e1ccd3d857)"><g transform="matrix(1, 0, 0, 1, 164, 0.000000000000113687)"><g clip-path="url(#23392e74e2)"><g fill="#ffffff" fill-opacity="1"><g transform="translate(2.687702, 371.410741)"><g><path d="M 165.125 -255.53125 C 182 -255.53125 196.195312 -254.320312 207.71875 -251.90625 C 219.238281 -249.5 230.757812 -245.351562 242.28125 -239.46875 C 244.15625 -238.394531 245.222656 -237.453125 245.484375 -236.640625 C 245.753906 -235.835938 246.15625 -233.832031 246.6875 -230.625 L 251.515625 -182.8125 C 251.515625 -182.007812 250.773438 -181.539062 249.296875 -181.40625 C 247.828125 -181.269531 246.957031 -181.601562 246.6875 -182.40625 C 234.375 -227.132812 206.785156 -249.5 163.921875 -249.5 C 141.421875 -249.5 121.597656 -244.546875 104.453125 -234.640625 C 87.316406 -224.734375 74.0625 -210.601562 64.6875 -192.25 C 55.3125 -173.90625 50.625 -152.546875 50.625 -128.171875 C 50.625 -104.867188 55.78125 -83.503906 66.09375 -64.078125 C 76.40625 -44.660156 90.332031 -29.328125 107.875 -18.078125 C 125.414062 -6.828125 144.5 -1.203125 165.125 -1.203125 C 187.09375 -1.203125 204.90625 -6.554688 218.5625 -17.265625 C 232.226562 -27.984375 242.675781 -44.328125 249.90625 -66.296875 C 249.90625 -66.828125 250.578125 -67.09375 251.921875 -67.09375 C 253.796875 -67.09375 254.734375 -66.691406 254.734375 -65.890625 L 250.71875 -21.703125 C 250.445312 -18.484375 250.039062 -16.472656 249.5 -15.671875 C 248.96875 -14.867188 247.898438 -13.929688 246.296875 -12.859375 C 232.367188 -6.160156 219.3125 -1.472656 207.125 1.203125 C 194.9375 3.878906 180.9375 5.21875 165.125 5.21875 C 137 5.21875 111.890625 -0.335938 89.796875 -11.453125 C 67.703125 -22.566406 50.492188 -38.164062 38.171875 -58.25 C 25.847656 -78.34375 19.6875 -101.378906 19.6875 -127.359375 C 19.6875 -152.535156 25.976562 -174.832031 38.5625 -194.25 C 51.15625 -213.675781 68.5 -228.742188 90.59375 -239.453125 C 112.695312 -250.171875 137.539062 -255.53125 165.125 -255.53125 Z M 165.125 -255.53125 "/></g></g></g></g></g></g><g transform="matrix(1, 0, 0, 1, 355, 196)"><g clip-path="url(#0ed8008e0d)"><g fill="#ffffff" fill-opacity="1"><g transform="translate(0.722461, 371.613595)"><g><path d="M 77.140625 -34.15625 C 77.140625 -25.582031 78.273438 -19.351562 80.546875 -15.46875 C 82.828125 -11.582031 87.25 -8.835938 93.8125 -7.234375 C 100.375 -5.628906 110.753906 -4.828125 124.953125 -4.828125 C 125.753906 -4.828125 126.15625 -4.019531 126.15625 -2.40625 C 126.15625 -0.800781 125.753906 0 124.953125 0 C 113.972656 0 105.398438 -0.132812 99.234375 -0.40625 L 64.28125 -0.796875 L 37.359375 -0.40625 C 32.273438 -0.132812 25.445312 0 16.875 0 C 16.34375 0 16.078125 -0.800781 16.078125 -2.40625 C 16.078125 -4.019531 16.34375 -4.828125 16.875 -4.828125 C 27.050781 -4.828125 34.484375 -5.492188 39.171875 -6.828125 C 43.859375 -8.171875 47.003906 -10.78125 48.609375 -14.65625 C 50.222656 -18.539062 51.03125 -24.503906 51.03125 -32.546875 L 51.03125 -218.5625 C 51.03125 -226.601562 50.222656 -232.5 48.609375 -236.25 C 47.003906 -240 43.859375 -242.609375 39.171875 -244.078125 C 34.484375 -245.554688 27.050781 -246.296875 16.875 -246.296875 C 16.34375 -246.296875 16.078125 -247.097656 16.078125 -248.703125 C 16.078125 -250.304688 16.34375 -251.109375 16.875 -251.109375 L 36.96875 -250.71875 C 48.21875 -250.175781 57.191406 -249.90625 63.890625 -249.90625 C 70.578125 -249.90625 78.078125 -250.304688 86.390625 -251.109375 C 89.597656 -251.109375 94.679688 -251.304688 101.640625 -251.703125 C 108.609375 -252.109375 114.640625 -252.3125 119.734375 -252.3125 C 144.367188 -252.3125 164.117188 -246.820312 178.984375 -235.84375 C 193.859375 -224.863281 201.296875 -208.125 201.296875 -185.625 C 201.296875 -167.945312 196.941406 -153.078125 188.234375 -141.015625 C 179.523438 -128.960938 168.40625 -119.988281 154.875 -114.09375 C 141.351562 -108.207031 127.363281 -105.265625 112.90625 -105.265625 C 104.863281 -105.265625 98.300781 -105.9375 93.21875 -107.28125 C 92.414062 -107.28125 92.015625 -107.945312 92.015625 -109.28125 C 92.015625 -110.082031 92.210938 -110.882812 92.609375 -111.6875 C 93.015625 -112.5 93.484375 -112.769531 94.015625 -112.5 C 98.304688 -111.425781 103.128906 -110.890625 108.484375 -110.890625 C 126.160156 -110.890625 141.09375 -116.644531 153.28125 -128.15625 C 165.46875 -139.675781 171.5625 -156.285156 171.5625 -177.984375 C 171.5625 -199.148438 165.800781 -215.828125 154.28125 -228.015625 C 142.757812 -240.203125 128.03125 -246.296875 110.09375 -246.296875 C 100.445312 -246.296875 93.476562 -245.757812 89.1875 -244.6875 C 84.90625 -243.613281 81.828125 -241.132812 79.953125 -237.25 C 78.078125 -233.363281 77.140625 -226.867188 77.140625 -217.765625 Z M 77.140625 -34.15625 "/></g></g></g><g fill="#ffffff" fill-opacity="1"><g transform="translate(218.855817, 371.613595)"><g><path d="M 58.265625 -204.109375 C 58.265625 -193.660156 60.804688 -184.550781 65.890625 -176.78125 C 70.984375 -169.007812 77.210938 -162.515625 84.578125 -157.296875 C 91.941406 -152.078125 102.050781 -145.582031 114.90625 -137.8125 C 129.101562 -129.238281 140.019531 -122.140625 147.65625 -116.515625 C 155.289062 -110.890625 161.851562 -103.722656 167.34375 -95.015625 C 172.832031 -86.316406 175.578125 -75.941406 175.578125 -63.890625 C 175.578125 -51.023438 172.363281 -39.367188 165.9375 -28.921875 C 159.507812 -18.484375 150.066406 -10.25 137.609375 -4.21875 C 125.148438 1.8125 110.21875 4.828125 92.8125 4.828125 C 72.1875 4.828125 53.300781 0.140625 36.15625 -9.234375 C 34.820312 -10.046875 33.953125 -10.984375 33.546875 -12.046875 C 33.148438 -13.117188 32.816406 -14.726562 32.546875 -16.875 L 27.328125 -71.515625 C 27.054688 -72.585938 27.65625 -73.253906 29.125 -73.515625 C 30.601562 -73.785156 31.472656 -73.390625 31.734375 -72.328125 C 36.023438 -53.035156 43.992188 -36.425781 55.640625 -22.5 C 67.296875 -8.570312 82.765625 -1.609375 102.046875 -1.609375 C 115.441406 -1.609375 126.757812 -5.289062 136 -12.65625 C 145.238281 -20.019531 149.859375 -31.738281 149.859375 -47.8125 C 149.859375 -59.863281 147.179688 -70.304688 141.828125 -79.140625 C 136.472656 -87.984375 129.976562 -95.285156 122.34375 -101.046875 C 114.707031 -106.804688 104.328125 -113.570312 91.203125 -121.34375 C 78.347656 -129.101562 68.238281 -135.796875 60.875 -141.421875 C 53.507812 -147.046875 47.28125 -154.144531 42.1875 -162.71875 C 37.09375 -171.289062 34.546875 -181.335938 34.546875 -192.859375 C 34.546875 -206.242188 38.09375 -217.691406 45.1875 -227.203125 C 52.289062 -236.710938 61.535156 -243.8125 72.921875 -248.5 C 84.304688 -253.1875 96.425781 -255.53125 109.28125 -255.53125 C 125.082031 -255.53125 140.753906 -252.316406 156.296875 -245.890625 C 160.304688 -244.546875 162.3125 -242.269531 162.3125 -239.0625 L 165.125 -192.859375 C 165.125 -191.785156 164.453125 -191.25 163.109375 -191.25 C 161.773438 -191.25 160.976562 -191.785156 160.71875 -192.859375 C 158.570312 -206.785156 152.8125 -219.707031 143.4375 -231.625 C 134.0625 -243.539062 120.535156 -249.5 102.859375 -249.5 C 87.859375 -249.5 76.675781 -245.144531 69.3125 -236.4375 C 61.945312 -227.738281 58.265625 -216.960938 58.265625 -204.109375 Z M 58.265625 -204.109375 "/></g></g></g></g></g><g clip-path="url(#93f929f864)"><g clip-path="url(#3eb51da460)"><g transform="matrix(1, 0, 0, 1, 259, 243)"><g clip-path="url(#1db97dc709)"><g clip-path="url(#6ade4059e1)"><g clip-path="url(#6eef920f2f)"><path fill="#2d2d2d" d="M 136.453125 0.160156 L 196.832031 36.597656 L 60.328125 262.773438 L -0.046875 226.335938 Z M 136.453125 0.160156 " fill-opacity="1" fill-rule="nonzero"/></g></g></g></g></g></g><g clip-path="url(#93ab59a65c)"><g clip-path="url(#4ec07fbbc5)"><g transform="matrix(1, 0, 0, 1, 265, 280)"><g clip-path="url(#a439842e4c)"><g clip-path="url(#6c94d58a16)"><g clip-path="url(#318023df55)"><path fill="#2d2d2d" d="M 50.898438 0.226562 L 133.167969 49.878906 L 82.546875 133.757812 L 0.277344 84.105469 Z M 50.898438 0.226562 " fill-opacity="1" fill-rule="nonzero"/></g></g></g></g></g></g><g clip-path="url(#23ff595740)"><g clip-path="url(#e1dfcba25a)"><g transform="matrix(1, 0, 0, 1, 361, 288)"><g clip-path="url(#288fbc1689)"><g clip-path="url(#3b74201aa4)"><g clip-path="url(#3abb3d7271)"><path fill="#2d2d2d" d="M 45.726562 0.109375 L 127.917969 49.710938 L 82.726562 124.589844 L 0.539062 74.988281 Z M 45.726562 0.109375 " fill-opacity="1" fill-rule="nonzero"/></g></g></g></g></g></g><path stroke-linecap="butt" transform="matrix(0.396796, -0.564977, 0.564977, 0.396796, 233.96882, 535.618194)" fill="none" stroke-linejoin="miter" d="M 0.00136279 5.502465 L 634.892675 5.501449 " stroke="#f6f4f0" stroke-width="11" stroke-opacity="1" stroke-miterlimit="4"/></g></g></svg>